<svg xmlns="http://www.w3.org/2000/svg" viewBox="56 0 268 383" role="img" aria-label="Kartogram over Norges 15 fylker, farget etter e-postplattform"><polygon points="293.8,4.0 319.8,19.0 319.8,49.0 293.8,64.0 267.8,49.0 267.8,19.0" fill="#ff6b6b" stroke="#0e1217" stroke-width="2"><title>Finnmark</title></polygon><text x="293.8" y="38.0" text-anchor="middle" font-family="sans-serif" font-size="15" font-weight="700" fill="#0b0e12">Fi</text><polygon points="267.8,49.0 293.8,64.0 293.8,94.0 267.8,109.0 241.8,94.0 241.8,64.0" fill="#ff6b6b" stroke="#0e1217" stroke-width="2"><title>Troms</title></polygon><text x="267.8" y="83.0" text-anchor="middle" font-family="sans-serif" font-size="15" font-weight="700" fill="#0b0e12">Tr</text><polygon points="241.8,94.0 267.8,109.0 267.8,139.0 241.8,154.0 215.9,139.0 215.9,109.0" fill="#ff6b6b" stroke="#0e1217" stroke-width="2"><title>Nordland</title></polygon><text x="241.8" y="128.0" text-anchor="middle" font-family="sans-serif" font-size="15" font-weight="700" fill="#0b0e12">No</text><polygon points="215.9,139.0 241.8,154.0 241.8,184.0 215.9,199.0 189.9,184.0 189.9,154.0" fill="#ff6b6b" stroke="#0e1217" stroke-width="2"><title>Trøndelag</title></polygon><text x="215.9" y="173.0" text-anchor="middle" font-family="sans-serif" font-size="15" font-weight="700" fill="#0b0e12">Trø</text><polygon points="86.0,184.0 111.9,199.0 111.9,229.0 86.0,244.0 60.0,229.0 60.0,199.0" fill="#ff6b6b" stroke="#0e1217" stroke-width="2"><title>Møre og Romsdal</title></polygon><text x="86.0" y="218.0" text-anchor="middle" font-family="sans-serif" font-size="15" font-weight="700" fill="#0b0e12">Mø</text><polygon points="189.9,184.0 215.9,199.0 215.9,229.0 189.9,244.0 163.9,229.0 163.9,199.0" fill="#ff6b6b" stroke="#0e1217" stroke-width="2"><title>Innlandet</title></polygon><text x="189.9" y="218.0" text-anchor="middle" font-family="sans-serif" font-size="15" font-weight="700" fill="#0b0e12">In</text><polygon points="111.9,229.0 137.9,244.0 137.9,274.0 111.9,289.0 86.0,274.0 86.0,244.0" fill="#ff6b6b" stroke="#0e1217" stroke-width="2"><title>Vestland</title></polygon><text x="111.9" y="263.0" text-anchor="middle" font-family="sans-serif" font-size="15" font-weight="700" fill="#0b0e12">Ve</text><polygon points="215.9,229.0 241.8,244.0 241.8,274.0 215.9,289.0 189.9,274.0 189.9,244.0" fill="#7d909f" stroke="#0e1217" stroke-width="2"><title>Akershus</title></polygon><text x="215.9" y="263.0" text-anchor="middle" font-family="sans-serif" font-size="15" font-weight="700" fill="#0b0e12">Ak</text><polygon points="86.0,274.0 111.9,289.0 111.9,319.0 86.0,334.0 60.0,319.0 60.0,289.0" fill="#ff6b6b" stroke="#0e1217" stroke-width="2"><title>Rogaland</title></polygon><text x="86.0" y="308.0" text-anchor="middle" font-family="sans-serif" font-size="15" font-weight="700" fill="#0b0e12">Ro</text><polygon points="137.9,274.0 163.9,289.0 163.9,319.0 137.9,334.0 111.9,319.0 111.9,289.0" fill="#7d909f" stroke="#0e1217" stroke-width="2"><title>Buskerud</title></polygon><text x="137.9" y="308.0" text-anchor="middle" font-family="sans-serif" font-size="15" font-weight="700" fill="#0b0e12">Bu</text><polygon points="189.9,274.0 215.9,289.0 215.9,319.0 189.9,334.0 163.9,319.0 163.9,289.0" fill="#ff6b6b" stroke="#0e1217" stroke-width="2"><title>Oslo</title></polygon><text x="189.9" y="308.0" text-anchor="middle" font-family="sans-serif" font-size="15" font-weight="700" fill="#0b0e12">Os</text><polygon points="241.8,274.0 267.8,289.0 267.8,319.0 241.8,334.0 215.9,319.0 215.9,289.0" fill="#ff6b6b" stroke="#0e1217" stroke-width="2"><title>Østfold</title></polygon><text x="241.8" y="308.0" text-anchor="middle" font-family="sans-serif" font-size="15" font-weight="700" fill="#0b0e12">Øs</text><polygon points="111.9,319.0 137.9,334.0 137.9,364.0 111.9,379.0 86.0,364.0 86.0,334.0" fill="#ff6b6b" stroke="#0e1217" stroke-width="2"><title>Agder</title></polygon><text x="111.9" y="353.0" text-anchor="middle" font-family="sans-serif" font-size="15" font-weight="700" fill="#0b0e12">Ag</text><polygon points="163.9,319.0 189.9,334.0 189.9,364.0 163.9,379.0 137.9,364.0 137.9,334.0" fill="#ff6b6b" stroke="#0e1217" stroke-width="2"><title>Telemark</title></polygon><text x="163.9" y="353.0" text-anchor="middle" font-family="sans-serif" font-size="15" font-weight="700" fill="#0b0e12">Te</text><polygon points="215.9,319.0 241.8,334.0 241.8,364.0 215.9,379.0 189.9,364.0 189.9,334.0" fill="#ff6b6b" stroke="#0e1217" stroke-width="2"><title>Vestfold</title></polygon><text x="215.9" y="353.0" text-anchor="middle" font-family="sans-serif" font-size="15" font-weight="700" fill="#0b0e12">Vf</text></svg>